<mxfile host="app.diagrams.net" modified="2022-04-01T03:41:10.138Z" agent="5.0 (Windows NT 10.0; Win64; x64) AppleWebKit/537.36 (KHTML, like Gecko) Chrome/99.0.4844.84 Safari/537.36" etag="-ttP8cJXm4YZgp4lQVki" version="17.4.0" type="github">
  <diagram id="AoQIWtYYpwWVk6ZIjzAr" name="Page-1">
    <mxGraphModel dx="2943" dy="883" grid="1" gridSize="10" guides="1" tooltips="1" connect="1" arrows="1" fold="1" page="1" pageScale="1" pageWidth="1169" pageHeight="827" math="0" shadow="0">
      <root>
        <mxCell id="0" />
        <mxCell id="1" parent="0" />
        <mxCell id="YSGmuBLDb0j3FGkOncBU-2" value="" style="rounded=0;whiteSpace=wrap;html=1;fillColor=#FAD7AC;" vertex="1" parent="1">
          <mxGeometry x="-100" y="70" width="670" height="690" as="geometry" />
        </mxCell>
        <mxCell id="5O7vwhL4JTgxeK-SQRp--1" value="" style="rounded=0;whiteSpace=wrap;html=1;fillColor=#C3ABD0;shadow=1;" parent="1" vertex="1">
          <mxGeometry x="140" y="150" width="400" height="80" as="geometry" />
        </mxCell>
        <mxCell id="5O7vwhL4JTgxeK-SQRp--2" value="&amp;nbsp; &amp;nbsp; &amp;nbsp; &amp;nbsp; &amp;nbsp;Driver" style="rounded=0;whiteSpace=wrap;html=1;fillColor=#FFF2CC;shadow=1;" parent="1" vertex="1">
          <mxGeometry x="191" y="160" width="120" height="40" as="geometry" />
        </mxCell>
        <mxCell id="5O7vwhL4JTgxeK-SQRp--3" value="java.sql" style="rounded=1;whiteSpace=wrap;html=1;fillColor=#97D077;" parent="1" vertex="1">
          <mxGeometry x="140" y="120" width="80" height="29" as="geometry" />
        </mxCell>
        <mxCell id="5O7vwhL4JTgxeK-SQRp--4" value="&amp;nbsp; &amp;nbsp; &amp;nbsp; &amp;nbsp; &amp;nbsp; &amp;nbsp;Connection" style="rounded=0;whiteSpace=wrap;html=1;fillColor=#FFF2CC;shadow=1;" parent="1" vertex="1">
          <mxGeometry x="391" y="160" width="120" height="40" as="geometry" />
        </mxCell>
        <mxCell id="5O7vwhL4JTgxeK-SQRp--5" value="" style="rounded=0;whiteSpace=wrap;html=1;fillColor=#FFF2CC;shadow=1;" parent="1" vertex="1">
          <mxGeometry x="191" y="200" width="120" height="10" as="geometry" />
        </mxCell>
        <mxCell id="5O7vwhL4JTgxeK-SQRp--6" value="" style="rounded=0;whiteSpace=wrap;html=1;fillColor=#FFF2CC;shadow=1;" parent="1" vertex="1">
          <mxGeometry x="391" y="200" width="120" height="10" as="geometry" />
        </mxCell>
        <mxCell id="5O7vwhL4JTgxeK-SQRp--7" value="" style="rounded=0;whiteSpace=wrap;html=1;fillColor=#C3ABD0;shadow=1;" parent="1" vertex="1">
          <mxGeometry x="-79" y="150" width="170" height="80" as="geometry" />
        </mxCell>
        <mxCell id="5O7vwhL4JTgxeK-SQRp--8" value="&amp;nbsp; &amp;nbsp; &amp;nbsp; &amp;nbsp; &amp;nbsp;QueryProvider" style="rounded=0;whiteSpace=wrap;html=1;fillColor=#FFF2CC;shadow=1;" parent="1" vertex="1">
          <mxGeometry x="-54" y="160" width="120" height="40" as="geometry" />
        </mxCell>
        <mxCell id="5O7vwhL4JTgxeK-SQRp--9" value="" style="rounded=0;whiteSpace=wrap;html=1;fillColor=#FFF2CC;shadow=1;" parent="1" vertex="1">
          <mxGeometry x="-54" y="200" width="120" height="10" as="geometry" />
        </mxCell>
        <mxCell id="5O7vwhL4JTgxeK-SQRp--10" value="org.apache.calcite.linq4j" style="rounded=1;whiteSpace=wrap;html=1;fillColor=#97D077;" parent="1" vertex="1">
          <mxGeometry x="-50" y="120" width="140" height="29" as="geometry" />
        </mxCell>
        <mxCell id="5O7vwhL4JTgxeK-SQRp--11" value="" style="rounded=0;whiteSpace=wrap;html=1;fillColor=#FFF2CC;shadow=1;" parent="1" vertex="1">
          <mxGeometry x="191" y="210" width="120" height="10" as="geometry" />
        </mxCell>
        <mxCell id="5O7vwhL4JTgxeK-SQRp--12" value="" style="rounded=0;whiteSpace=wrap;html=1;fillColor=#FFF2CC;shadow=1;" parent="1" vertex="1">
          <mxGeometry x="391" y="210" width="120" height="10" as="geometry" />
        </mxCell>
        <mxCell id="5O7vwhL4JTgxeK-SQRp--13" value="&amp;nbsp; &amp;nbsp; &amp;nbsp; &amp;nbsp; &amp;nbsp; &amp;nbsp;CalciteConnection" style="rounded=0;whiteSpace=wrap;html=1;fillColor=#FFF2CC;shadow=1;" parent="1" vertex="1">
          <mxGeometry x="198" y="295" width="150" height="40" as="geometry" />
        </mxCell>
        <mxCell id="5O7vwhL4JTgxeK-SQRp--14" value="" style="rounded=0;whiteSpace=wrap;html=1;fillColor=#FFF2CC;shadow=1;" parent="1" vertex="1">
          <mxGeometry x="198" y="335" width="150" height="10" as="geometry" />
        </mxCell>
        <mxCell id="5O7vwhL4JTgxeK-SQRp--16" value="" style="rounded=0;whiteSpace=wrap;html=1;fillColor=#FFF2CC;shadow=1;" parent="1" vertex="1">
          <mxGeometry x="198" y="345" width="150" height="10" as="geometry" />
        </mxCell>
        <mxCell id="5O7vwhL4JTgxeK-SQRp--18" value="" style="endArrow=classic;html=1;rounded=0;exitX=0.5;exitY=0;exitDx=0;exitDy=0;fillColor=#FFF2CC;shadow=1;entryX=0.5;entryY=1;entryDx=0;entryDy=0;" parent="1" source="5O7vwhL4JTgxeK-SQRp--13" target="5O7vwhL4JTgxeK-SQRp--12" edge="1">
          <mxGeometry width="50" height="50" relative="1" as="geometry">
            <mxPoint x="388" y="340" as="sourcePoint" />
            <mxPoint x="420" y="220" as="targetPoint" />
          </mxGeometry>
        </mxCell>
        <mxCell id="5O7vwhL4JTgxeK-SQRp--19" value="" style="rounded=0;whiteSpace=wrap;html=1;fillColor=#FFF2CC;shadow=1;" parent="1" vertex="1">
          <mxGeometry x="-54" y="210" width="120" height="10" as="geometry" />
        </mxCell>
        <mxCell id="5O7vwhL4JTgxeK-SQRp--20" value="" style="endArrow=classic;html=1;rounded=0;exitX=0.5;exitY=0;exitDx=0;exitDy=0;entryX=0.75;entryY=1;entryDx=0;entryDy=0;fillColor=#FFF2CC;shadow=1;" parent="1" source="5O7vwhL4JTgxeK-SQRp--13" target="5O7vwhL4JTgxeK-SQRp--19" edge="1">
          <mxGeometry width="50" height="50" relative="1" as="geometry">
            <mxPoint x="392.1200000000001" y="361.84000000000003" as="sourcePoint" />
            <mxPoint x="183" y="220" as="targetPoint" />
          </mxGeometry>
        </mxCell>
        <mxCell id="5O7vwhL4JTgxeK-SQRp--21" value="I" style="ellipse;whiteSpace=wrap;html=1;aspect=fixed;fillColor=#E6D0DE;shadow=1;" parent="1" vertex="1">
          <mxGeometry x="201" y="165" width="30" height="30" as="geometry" />
        </mxCell>
        <mxCell id="5O7vwhL4JTgxeK-SQRp--22" value="I" style="ellipse;whiteSpace=wrap;html=1;aspect=fixed;fillColor=#E6D0DE;shadow=1;" parent="1" vertex="1">
          <mxGeometry x="398" y="165" width="30" height="30" as="geometry" />
        </mxCell>
        <mxCell id="5O7vwhL4JTgxeK-SQRp--23" value="I" style="ellipse;whiteSpace=wrap;html=1;aspect=fixed;fillColor=#E6D0DE;shadow=1;" parent="1" vertex="1">
          <mxGeometry x="-51" y="165" width="30" height="30" as="geometry" />
        </mxCell>
        <mxCell id="5O7vwhL4JTgxeK-SQRp--24" value="" style="endArrow=classic;html=1;rounded=0;exitX=0.5;exitY=0;exitDx=0;exitDy=0;entryX=0.5;entryY=1;entryDx=0;entryDy=0;fillColor=#FFF2CC;shadow=1;" parent="1" target="5O7vwhL4JTgxeK-SQRp--12" edge="1">
          <mxGeometry width="50" height="50" relative="1" as="geometry">
            <mxPoint x="528" y="319.9999999999998" as="sourcePoint" />
            <mxPoint x="488" y="220" as="targetPoint" />
          </mxGeometry>
        </mxCell>
        <mxCell id="5O7vwhL4JTgxeK-SQRp--25" value="I" style="ellipse;whiteSpace=wrap;html=1;aspect=fixed;fillColor=#E6D0DE;shadow=1;" parent="1" vertex="1">
          <mxGeometry x="208" y="300" width="30" height="30" as="geometry" />
        </mxCell>
        <mxCell id="5O7vwhL4JTgxeK-SQRp--27" value="&amp;nbsp; &amp;nbsp; &amp;nbsp; &amp;nbsp; &amp;nbsp;Driver" style="rounded=0;whiteSpace=wrap;html=1;fillColor=#FFF2CC;shadow=1;" parent="1" vertex="1">
          <mxGeometry x="20" y="530" width="120" height="40" as="geometry" />
        </mxCell>
        <mxCell id="5O7vwhL4JTgxeK-SQRp--28" value="" style="rounded=0;whiteSpace=wrap;html=1;fillColor=#FFF2CC;shadow=1;" parent="1" vertex="1">
          <mxGeometry x="20" y="570" width="120" height="10" as="geometry" />
        </mxCell>
        <mxCell id="5O7vwhL4JTgxeK-SQRp--29" value="" style="rounded=0;whiteSpace=wrap;html=1;fillColor=#FFF2CC;shadow=1;" parent="1" vertex="1">
          <mxGeometry x="20" y="580" width="120" height="10" as="geometry" />
        </mxCell>
        <mxCell id="5O7vwhL4JTgxeK-SQRp--30" value="&amp;nbsp; &amp;nbsp; &amp;nbsp; &amp;nbsp; &amp;nbsp; &amp;nbsp;UnregisteredDriver" style="rounded=0;whiteSpace=wrap;html=1;fillColor=#FFF2CC;shadow=1;" parent="1" vertex="1">
          <mxGeometry x="-72" y="335" width="160" height="40" as="geometry" />
        </mxCell>
        <mxCell id="5O7vwhL4JTgxeK-SQRp--31" value="" style="rounded=0;whiteSpace=wrap;html=1;fillColor=#FFF2CC;shadow=1;" parent="1" vertex="1">
          <mxGeometry x="-72" y="375" width="160" height="10" as="geometry" />
        </mxCell>
        <mxCell id="5O7vwhL4JTgxeK-SQRp--32" value="" style="rounded=0;whiteSpace=wrap;html=1;fillColor=#FFF2CC;shadow=1;" parent="1" vertex="1">
          <mxGeometry x="-72" y="385" width="160" height="10" as="geometry" />
        </mxCell>
        <mxCell id="5O7vwhL4JTgxeK-SQRp--33" value="A" style="ellipse;whiteSpace=wrap;html=1;aspect=fixed;fillColor=#B3B3B3;shadow=1;" parent="1" vertex="1">
          <mxGeometry x="-65" y="340" width="30" height="30" as="geometry" />
        </mxCell>
        <mxCell id="5O7vwhL4JTgxeK-SQRp--34" value="C" style="ellipse;whiteSpace=wrap;html=1;aspect=fixed;fillColor=#9AC7BF;shadow=1;" parent="1" vertex="1">
          <mxGeometry x="30" y="535" width="30" height="30" as="geometry" />
        </mxCell>
        <mxCell id="5O7vwhL4JTgxeK-SQRp--35" value="" style="endArrow=classic;html=1;rounded=0;exitX=0.5;exitY=0;exitDx=0;exitDy=0;entryX=0.5;entryY=1;entryDx=0;entryDy=0;fillColor=#FFF2CC;shadow=1;" parent="1" source="5O7vwhL4JTgxeK-SQRp--30" target="5O7vwhL4JTgxeK-SQRp--11" edge="1">
          <mxGeometry width="50" height="50" relative="1" as="geometry">
            <mxPoint x="315.5" y="330" as="sourcePoint" />
            <mxPoint x="358" y="220" as="targetPoint" />
          </mxGeometry>
        </mxCell>
        <mxCell id="5O7vwhL4JTgxeK-SQRp--36" value="" style="endArrow=classic;html=1;rounded=0;exitX=0.5;exitY=0;exitDx=0;exitDy=0;entryX=0.5;entryY=1;entryDx=0;entryDy=0;fillColor=#FFF2CC;shadow=1;" parent="1" source="5O7vwhL4JTgxeK-SQRp--27" target="5O7vwhL4JTgxeK-SQRp--32" edge="1">
          <mxGeometry width="50" height="50" relative="1" as="geometry">
            <mxPoint x="326.5" y="340" as="sourcePoint" />
            <mxPoint x="204" y="240" as="targetPoint" />
          </mxGeometry>
        </mxCell>
        <mxCell id="5O7vwhL4JTgxeK-SQRp--37" value="&amp;nbsp; &amp;nbsp; &amp;nbsp; &amp;nbsp; &amp;nbsp; &amp;nbsp;CalciteConnectionImpl" style="rounded=0;whiteSpace=wrap;html=1;fillColor=#FFF2CC;shadow=1;" parent="1" vertex="1">
          <mxGeometry x="189" y="430" width="170" height="40" as="geometry" />
        </mxCell>
        <mxCell id="5O7vwhL4JTgxeK-SQRp--38" value="" style="rounded=0;whiteSpace=wrap;html=1;fillColor=#FFF2CC;shadow=1;" parent="1" vertex="1">
          <mxGeometry x="189" y="470" width="170" height="10" as="geometry" />
        </mxCell>
        <mxCell id="5O7vwhL4JTgxeK-SQRp--39" value="" style="rounded=0;whiteSpace=wrap;html=1;fillColor=#FFF2CC;shadow=1;" parent="1" vertex="1">
          <mxGeometry x="189" y="480" width="170" height="10" as="geometry" />
        </mxCell>
        <mxCell id="5O7vwhL4JTgxeK-SQRp--40" value="A" style="ellipse;whiteSpace=wrap;html=1;aspect=fixed;fillColor=#B3B3B3;shadow=1;" parent="1" vertex="1">
          <mxGeometry x="196" y="435" width="30" height="30" as="geometry" />
        </mxCell>
        <mxCell id="5O7vwhL4JTgxeK-SQRp--41" value="&amp;nbsp; &amp;nbsp; &amp;nbsp; &amp;nbsp; &amp;nbsp; &amp;nbsp; &amp;nbsp; CalciteJdbc41Connection" style="rounded=0;whiteSpace=wrap;html=1;fillColor=#FFF2CC;shadow=1;" parent="1" vertex="1">
          <mxGeometry x="181" y="530" width="186" height="40" as="geometry" />
        </mxCell>
        <mxCell id="5O7vwhL4JTgxeK-SQRp--42" value="" style="rounded=0;whiteSpace=wrap;html=1;fillColor=#FFF2CC;shadow=1;" parent="1" vertex="1">
          <mxGeometry x="181" y="570" width="186" height="10" as="geometry" />
        </mxCell>
        <mxCell id="5O7vwhL4JTgxeK-SQRp--43" value="" style="rounded=0;whiteSpace=wrap;html=1;fillColor=#FFF2CC;shadow=1;" parent="1" vertex="1">
          <mxGeometry x="181" y="580" width="186" height="10" as="geometry" />
        </mxCell>
        <mxCell id="5O7vwhL4JTgxeK-SQRp--44" value="C" style="ellipse;whiteSpace=wrap;html=1;aspect=fixed;fillColor=#9AC7BF;shadow=1;" parent="1" vertex="1">
          <mxGeometry x="190" y="535" width="30" height="30" as="geometry" />
        </mxCell>
        <mxCell id="5O7vwhL4JTgxeK-SQRp--45" value="" style="endArrow=classic;html=1;rounded=0;exitX=0.5;exitY=0;exitDx=0;exitDy=0;entryX=0.5;entryY=1;entryDx=0;entryDy=0;fillColor=#FFF2CC;shadow=1;" parent="1" source="5O7vwhL4JTgxeK-SQRp--37" target="5O7vwhL4JTgxeK-SQRp--16" edge="1">
          <mxGeometry width="50" height="50" relative="1" as="geometry">
            <mxPoint x="386.5499999999997" y="330" as="sourcePoint" />
            <mxPoint x="499" y="230" as="targetPoint" />
          </mxGeometry>
        </mxCell>
        <mxCell id="5O7vwhL4JTgxeK-SQRp--46" value="" style="endArrow=classic;html=1;rounded=0;exitX=0.5;exitY=0;exitDx=0;exitDy=0;entryX=0.5;entryY=1;entryDx=0;entryDy=0;fillColor=#FFF2CC;shadow=1;" parent="1" source="5O7vwhL4JTgxeK-SQRp--37" target="5O7vwhL4JTgxeK-SQRp--62" edge="1">
          <mxGeometry width="50" height="50" relative="1" as="geometry">
            <mxPoint x="396.5499999999997" y="340" as="sourcePoint" />
            <mxPoint x="529" y="380" as="targetPoint" />
          </mxGeometry>
        </mxCell>
        <mxCell id="5O7vwhL4JTgxeK-SQRp--47" value="" style="endArrow=classic;html=1;rounded=0;exitX=0.5;exitY=0;exitDx=0;exitDy=0;entryX=0.75;entryY=1;entryDx=0;entryDy=0;fillColor=#FFF2CC;shadow=1;" parent="1" source="5O7vwhL4JTgxeK-SQRp--37" target="5O7vwhL4JTgxeK-SQRp--19" edge="1">
          <mxGeometry width="50" height="50" relative="1" as="geometry">
            <mxPoint x="405.5499999999997" y="350" as="sourcePoint" />
            <mxPoint x="123" y="220" as="targetPoint" />
          </mxGeometry>
        </mxCell>
        <mxCell id="5O7vwhL4JTgxeK-SQRp--48" value="" style="endArrow=classic;html=1;rounded=0;entryX=0.5;entryY=1;entryDx=0;entryDy=0;fillColor=#FFF2CC;shadow=1;" parent="1" source="5O7vwhL4JTgxeK-SQRp--41" target="5O7vwhL4JTgxeK-SQRp--39" edge="1">
          <mxGeometry width="50" height="50" relative="1" as="geometry">
            <mxPoint x="284" y="440" as="sourcePoint" />
            <mxPoint x="354" y="390" as="targetPoint" />
          </mxGeometry>
        </mxCell>
        <mxCell id="5O7vwhL4JTgxeK-SQRp--49" value="" style="edgeStyle=none;rounded=0;orthogonalLoop=1;jettySize=auto;html=1;fillColor=#FFF2CC;elbow=vertical;entryX=0.5;entryY=0;entryDx=0;entryDy=0;shadow=1;" parent="1" source="5O7vwhL4JTgxeK-SQRp--50" target="5O7vwhL4JTgxeK-SQRp--27" edge="1">
          <mxGeometry relative="1" as="geometry" />
        </mxCell>
        <mxCell id="5O7vwhL4JTgxeK-SQRp--50" value="calcite jdbc driver" style="shape=note;whiteSpace=wrap;html=1;backgroundOutline=1;darkOpacity=0.05;fillColor=#FFFF99;size=16;shadow=1;" parent="1" vertex="1">
          <mxGeometry x="58" y="414" width="120" height="40" as="geometry" />
        </mxCell>
        <mxCell id="5O7vwhL4JTgxeK-SQRp--51" value="" style="edgeStyle=none;rounded=0;orthogonalLoop=1;jettySize=auto;html=1;fillColor=#FFF2CC;elbow=vertical;entryX=0.5;entryY=1;entryDx=0;entryDy=0;shadow=1;" parent="1" source="5O7vwhL4JTgxeK-SQRp--52" target="5O7vwhL4JTgxeK-SQRp--62" edge="1">
          <mxGeometry relative="1" as="geometry">
            <mxPoint x="528.4736842105262" y="380" as="targetPoint" />
          </mxGeometry>
        </mxCell>
        <mxCell id="5O7vwhL4JTgxeK-SQRp--52" value="avatica框架的jdbc connection实现" style="shape=note;whiteSpace=wrap;html=1;backgroundOutline=1;darkOpacity=0.05;fillColor=#FFFF99;size=16;shadow=1;" parent="1" vertex="1">
          <mxGeometry x="363.5" y="400" width="193" height="40" as="geometry" />
        </mxCell>
        <mxCell id="5O7vwhL4JTgxeK-SQRp--60" value="&amp;nbsp; &amp;nbsp; &amp;nbsp; &amp;nbsp; &amp;nbsp; &amp;nbsp;AvaticaConnection" style="rounded=0;whiteSpace=wrap;html=1;fillColor=#FFF2CC;shadow=1;" parent="1" vertex="1">
          <mxGeometry x="378" y="295" width="160" height="40" as="geometry" />
        </mxCell>
        <mxCell id="5O7vwhL4JTgxeK-SQRp--61" value="" style="rounded=0;whiteSpace=wrap;html=1;fillColor=#FFF2CC;shadow=1;" parent="1" vertex="1">
          <mxGeometry x="378" y="335" width="160" height="10" as="geometry" />
        </mxCell>
        <mxCell id="5O7vwhL4JTgxeK-SQRp--62" value="" style="rounded=0;whiteSpace=wrap;html=1;fillColor=#FFF2CC;shadow=1;" parent="1" vertex="1">
          <mxGeometry x="378" y="345" width="160" height="10" as="geometry" />
        </mxCell>
        <mxCell id="5O7vwhL4JTgxeK-SQRp--63" value="A" style="ellipse;whiteSpace=wrap;html=1;aspect=fixed;fillColor=#B3B3B3;shadow=1;" parent="1" vertex="1">
          <mxGeometry x="385" y="300" width="30" height="30" as="geometry" />
        </mxCell>
        <mxCell id="5O7vwhL4JTgxeK-SQRp--66" value="&amp;nbsp; &amp;nbsp; &amp;nbsp; &amp;nbsp; &amp;nbsp; CustomDriver" style="rounded=0;whiteSpace=wrap;html=1;fillColor=#97D077;shadow=1;" parent="1" vertex="1">
          <mxGeometry x="15" y="650" width="130" height="40" as="geometry" />
        </mxCell>
        <mxCell id="5O7vwhL4JTgxeK-SQRp--67" value="" style="rounded=0;whiteSpace=wrap;html=1;fillColor=#97D077;shadow=1;" parent="1" vertex="1">
          <mxGeometry x="15" y="690" width="130" height="10" as="geometry" />
        </mxCell>
        <mxCell id="5O7vwhL4JTgxeK-SQRp--68" value="" style="rounded=0;whiteSpace=wrap;html=1;fillColor=#97D077;shadow=1;" parent="1" vertex="1">
          <mxGeometry x="15" y="700" width="130" height="10" as="geometry" />
        </mxCell>
        <mxCell id="5O7vwhL4JTgxeK-SQRp--69" value="C" style="ellipse;whiteSpace=wrap;html=1;aspect=fixed;fillColor=#9AC7BF;shadow=1;" parent="1" vertex="1">
          <mxGeometry x="25" y="655" width="30" height="30" as="geometry" />
        </mxCell>
        <mxCell id="5O7vwhL4JTgxeK-SQRp--70" value="&amp;nbsp; &amp;nbsp; &amp;nbsp; &amp;nbsp; &amp;nbsp; CustomConnection" style="rounded=0;whiteSpace=wrap;html=1;fillColor=#97D077;shadow=1;" parent="1" vertex="1">
          <mxGeometry x="193.5" y="650" width="161" height="40" as="geometry" />
        </mxCell>
        <mxCell id="5O7vwhL4JTgxeK-SQRp--71" value="" style="rounded=0;whiteSpace=wrap;html=1;fillColor=#97D077;shadow=1;" parent="1" vertex="1">
          <mxGeometry x="193.5" y="690" width="161" height="10" as="geometry" />
        </mxCell>
        <mxCell id="5O7vwhL4JTgxeK-SQRp--72" value="" style="rounded=0;whiteSpace=wrap;html=1;fillColor=#97D077;shadow=1;" parent="1" vertex="1">
          <mxGeometry x="193.5" y="700" width="161" height="10" as="geometry" />
        </mxCell>
        <mxCell id="5O7vwhL4JTgxeK-SQRp--73" value="C" style="ellipse;whiteSpace=wrap;html=1;aspect=fixed;fillColor=#9AC7BF;shadow=1;" parent="1" vertex="1">
          <mxGeometry x="203.5" y="655" width="30" height="30" as="geometry" />
        </mxCell>
        <mxCell id="5O7vwhL4JTgxeK-SQRp--74" value="" style="endArrow=classic;html=1;rounded=0;entryX=0.5;entryY=1;entryDx=0;entryDy=0;fillColor=#FFF2CC;shadow=1;exitX=0.5;exitY=0;exitDx=0;exitDy=0;" parent="1" source="5O7vwhL4JTgxeK-SQRp--66" target="5O7vwhL4JTgxeK-SQRp--29" edge="1">
          <mxGeometry width="50" height="50" relative="1" as="geometry">
            <mxPoint x="80" y="640" as="sourcePoint" />
            <mxPoint x="10" y="405" as="targetPoint" />
          </mxGeometry>
        </mxCell>
        <mxCell id="5O7vwhL4JTgxeK-SQRp--75" value="" style="endArrow=classic;html=1;rounded=0;entryX=0.5;entryY=1;entryDx=0;entryDy=0;fillColor=#FFF2CC;shadow=1;" parent="1" source="5O7vwhL4JTgxeK-SQRp--70" target="5O7vwhL4JTgxeK-SQRp--43" edge="1">
          <mxGeometry width="50" height="50" relative="1" as="geometry">
            <mxPoint x="284" y="540" as="sourcePoint" />
            <mxPoint x="284" y="500" as="targetPoint" />
          </mxGeometry>
        </mxCell>
        <mxCell id="5O7vwhL4JTgxeK-SQRp--76" value="本项目中自定义实现的Driver和Connection" style="shape=note;whiteSpace=wrap;html=1;backgroundOutline=1;darkOpacity=0.05;fillColor=#FFFF99;size=16;shadow=1;" parent="1" vertex="1">
          <mxGeometry x="364.5" y="650" width="190.5" height="50" as="geometry" />
        </mxCell>
      </root>
    </mxGraphModel>
  </diagram>
</mxfile>
